#Exported from google sketchup
mtllib hall1.mtl
  v   1.0711  -0.5568   0.0000
  v  -1.0989  -0.5568   0.0000
  v   1.0711   1.9232   0.0000
  v  -1.0989   1.9232   0.0000
  v  -1.0989  -0.5568   6.7000
  v   6.4211  -0.5568   6.7000
  v  -1.0989   1.9232   6.7000
  v   6.4211   1.9232   6.7000
  v  -1.0989   1.9232   0.0000
  v  -1.0989  -0.5568   0.0000
  v  -1.0989   1.9232   6.7000
  v  -1.0989  -0.5568   6.7000
  v   1.0711  -0.5568   0.0000
  v   1.0711   1.9232   0.0000
  v   1.0711  -0.5568   4.8910
  v   1.0711   1.9232   4.6698
  v   6.4211   1.6487   1.5921
  v   6.4211   1.9232   4.6698
  v   6.4211  -0.8313   1.8133
  v   6.4211  -0.5568   4.8910
  v   6.4211   1.9232   6.7000
  v   6.4211  -0.5568   6.7000
  v   4.9561  -0.5568   4.8910
  v   1.0711  -0.5568   4.8910
  v   4.9561   1.9232   4.6698
  v   1.0711   1.9232   4.6698
  v   4.9561  -0.8313   1.8133
  v   4.9561   1.6487   1.5921
  v   6.4211  -0.8313   1.8133
  v   6.4211   1.6487   1.5921
  v   4.9561   1.6487   1.5921
  v   4.9561  -0.8313   1.8133
  v   4.9561   1.9232   4.6698
  v   4.9561  -0.5568   4.8910
  v  -1.0989  -0.5568   0.0000
  v   1.0711  -0.5568   4.8910
  v  -1.0989  -0.5568   6.7000
  v   6.4211  -0.5568   6.7000
  v   4.9561  -0.5568   4.8910
  v   6.4211  -0.5568   4.8910
  v   1.0711  -0.5568   0.0000
  v   4.9561  -0.5568   4.8910
  v   4.9561  -0.8313   1.8133
  v   6.4211  -0.5568   4.8910
  v   6.4211  -0.8313   1.8133
#  45 elements
  vt   2.3427  -1.2179 0.0000
  vt  -2.4036  -1.2179 0.0000
  vt   2.3427   4.2064 0.0000
  vt  -2.4036   4.2064 0.0000
  vt   2.4036  -1.2179 0.0000
  vt -14.0444  -1.2179 0.0000
  vt   2.4036   4.2064 0.0000
  vt -14.0444   4.2064 0.0000
  vt  -0.0000   4.2064 0.0000
  vt  -0.0000  -1.2179 0.0000
  vt -14.6544   4.2064 0.0000
  vt -14.6544  -1.2179 0.0000
  vt   0.0000  -1.2179 0.0000
  vt   0.0000   4.2064 0.0000
  vt  10.6978  -1.2179 0.0000
  vt  10.2140   4.2064 0.0000
  vt   3.4822   3.6060 0.0000
  vt  10.2140   4.2064 0.0000
  vt   3.9660  -1.8183 0.0000
  vt  10.6978  -1.2179 0.0000
  vt  14.6544   4.2064 0.0000
  vt  14.6544  -1.2179 0.0000
  vt  10.8401  -2.1635 0.0000
  vt   2.3427  -2.1635 0.0000
  vt  10.8401   3.2824 0.0000
  vt   2.3427   3.2824 0.0000
  vt  10.8401  -2.1635 0.0000
  vt  10.8401   3.2824 0.0000
  vt  14.0444  -2.1635 0.0000
  vt  14.0444   3.2824 0.0000
  vt  -3.4822   3.6060 0.0000
  vt  -3.9660  -1.8183 0.0000
  vt -10.2140   4.2064 0.0000
  vt -10.6978  -1.2179 0.0000
  vt   3.6053   0.0000 0.0000
  vt  -3.5141  16.0467 0.0000
  vt   3.6053  21.9816 0.0000
  vt -21.0666  21.9816 0.0000
  vt -16.2602  16.0467 0.0000
  vt -21.0666  16.0467 0.0000
  vt  -3.5141   0.0000 0.0000
  vt -16.2602  15.8210 0.0000
  vt -16.2602   5.6832 0.0000
  vt -21.0666  15.8210 0.0000
  vt -21.0666   5.6832 0.0000
#  45 elements
  vn   0.0000   0.0000   1.0000
  vn   0.0000   0.0000  -1.0000
  vn   1.0000   0.0000   0.0000
  vn  -1.0000   0.0000   0.0000
  vn  -1.0000  -0.0000  -0.0000
  vn   0.0000   0.0888   0.9960
  vn  -0.0000   0.0888   0.9960
  vn   0.0000   1.0000   0.0000
  vn  -0.0000   0.9960  -0.0888
#  9 elements
#  25 faces
usemtl __Brick_Pavers_Modular__Brick_Pavers_Modular_jpg
f 3/3/1 2/2/1 1/1/1
f 2/2/1 3/3/1 4/4/1
f 7/7/2 6/6/2 5/5/2
f 6/6/2 7/7/2 8/8/2
f 11/11/3 10/10/3 9/9/3
f 10/10/3 11/11/3 12/12/3
f 15/15/4 14/14/4 13/13/4
f 14/14/4 15/15/4 16/16/4
f 19/19/5 18/18/5 17/17/5
f 18/18/5 19/19/5 20/20/5
f 18/18/5 20/20/5 21/21/5
f 21/21/5 20/20/5 22/22/5
f 25/25/6 24/24/6 23/23/6
f 24/24/6 25/25/6 26/26/6
f 29/29/7 28/28/7 27/27/7
f 28/28/7 29/29/7 30/30/7
f 33/33/3 32/32/3 31/31/3
f 32/32/3 33/33/3 34/34/3
usemtl __Vegetation_Blur7__Vegetation_Blur7_jpg
f 37/37/8 36/36/8 35/35/8
f 36/36/8 37/37/8 38/38/8
f 36/36/8 38/38/8 39/39/8
f 39/39/8 38/38/8 40/40/8
f 41/41/8 35/35/8 36/36/8
f 44/44/9 43/43/9 42/42/9
f 43/43/9 44/44/9 45/45/9